<svg height="512" viewBox="0 0 64 64" width="512" xmlns="http://www.w3.org/2000/svg"><path d="m47 55v-13l6 5v-5l-8-7-8 7v5l6-5v13z" fill="#9bc9ff"/><path d="m13 45h16a16 16 0 0 1 24-13.86v-16.14a2.006 2.006 0 0 0 -2-2h-38a4 4 0 0 0 -4 4v24a4 4 0 0 0 4 4z" fill="#9bc9ff"/><g fill="#57a4ff"><path d="m54 30.6v-15.6a3 3 0 0 0 -2-2.816v-3.184a3 3 0 0 0 -3-3h-28a1 1 0 0 1 -1-1 3 3 0 0 0 -3-3h-12a3 3 0 0 0 -3 3v38a3 3 0 0 0 3 3h23.051a16.989 16.989 0 1 0 25.949-15.4zm-50 12.4v-38a1 1 0 0 1 1-1h12a1 1 0 0 1 1 1 3 3 0 0 0 3 3h28a1 1 0 0 1 1 1v3h-37a5.006 5.006 0 0 0 -5 5v24a4.948 4.948 0 0 0 1.026 3h-4.026a1 1 0 0 1 -1-1zm6-2v-24a3 3 0 0 1 3-3h38a1 1 0 0 1 1 1v14.526a16.947 16.947 0 0 0 -23.949 14.474h-15.051a3 3 0 0 1 -3-3zm35 19a15 15 0 1 1 15-15 15.017 15.017 0 0 1 -15 15z"/><path d="m45.659 34.248a1 1 0 0 0 -1.318 0l-8 7a1 1 0 0 0 -.341.752v5a1 1 0 0 0 1.64.768l4.36-3.633v10.865a1 1 0 0 0 1 1h4a1 1 0 0 0 1-1v-10.865l4.36 3.633a1 1 0 0 0 1.64-.768v-5a1 1 0 0 0 -.341-.752zm6.341 10.617-4.36-3.633a1 1 0 0 0 -1.64.768v12h-2v-12a1 1 0 0 0 -1.64-.768l-4.36 3.633v-2.411l7-6.125 7 6.125z"/><path d="m13 16a1 1 0 0 0 -1 1v4h2v-3h3v-2z"/><path d="m12 23h2v2h-2z"/></g></svg>